/* XPM */
static char *_8668_b4d3e4679d39f752c25435fd0f67cf47c8ea1b6b14188c4dd1b7b69480a3b0cf_3[] = {
/* columns rows colors chars-per-pixel */
"48 48 175 2 ",
"   c #0D8E71F2CFCF",
".  c #10107272CFCF",
"X  c #00816C4CD4F4",
"o  c #00006CEDDCDC",
"O  c #00007070D6D6",
"+  c #008C74D1DC96",
"@  c #03D17B14DE77",
"#  c #0AD87DB0DE77",
"$  c #13697575D17B",
"%  c #18187777D2D2",
"&  c #17177878D1D1",
"*  c #1BC67B25D2FD",
"=  c #10107F7FDCDC",
"-  c #21217E7ED454",
";  c #0000753CE455",
":  c #00D67B50E2E2",
">  c #0A0A7D7DE0E0",
",  c #00007BFCEB40",
"<  c #0F0F8181DFDF",
"1  c #14E2824FDE44",
"2  c #1A9B8404DDDD",
"3  c #25088249D59C",
"4  c #2AEB8666D696",
"5  c #2F2F89BCD7D7",
"6  c #22A38404DADA",
"7  c #28288484DADA",
"8  c #22228989DDDD",
"9  c #2D2D8B0BDEDE",
"0  c #31318686D6D6",
"q  c #30868A8AD7D7",
"w  c #34348CECD8F8",
"e  c #3ABB8E8EDDDD",
"r  c #33B49212DD5D",
"t  c #3ADE929EDAE6",
"y  c #3E3E9898DFDF",
"u  c #03038383E767",
"i  c #0C8D8404E3E3",
"p  c #008A8484ED3B",
"a  c #0A0A8787E9E9",
"s  c #00008B8BEAEA",
"d  c #0E0E8A8AE8E8",
"f  c #16168484E0E0",
"g  c #18188686E3E3",
"h  c #13138888E4E4",
"j  c #13138C0CE969",
"k  c #1C1C8C8CE4E4",
"l  c #1C1C9292EAEA",
"z  c #000084A1F1F1",
"x  c #00008A8AF474",
"c  c #00008DE3FBFB",
"v  c #00009249FFFF",
"b  c #00009898FFFF",
"n  c #22228F39E58F",
"m  c #2EAF9414E4E4",
"M  c #26269696EBEB",
"N  c #2A2A9A1AEDED",
"B  c #35359393E2E2",
"V  c #3D3D9696E2E2",
"C  c #33339898E4E4",
"Z  c #3A3A9C9CE4E4",
"A  c #32329D9DECEC",
"S  c #3F3FA2A2E7E7",
"D  c #4209975EDC14",
"F  c #4A4A923CDA84",
"G  c #442A99E6DD76",
"H  c #4B5F9E8ADEB6",
"J  c #51519494D9D9",
"K  c #51519F9FDFDF",
"L  c #5E5E9F9FDEDE",
"P  c #67679898D4D4",
"I  c #66669D9DDADA",
"U  c #77779F9FD5D5",
"Y  c #4E4EA13ADF78",
"T  c #50D1A2A2DFDF",
"R  c #6060A2A2DFDF",
"E  c #6969A1A1DCDC",
"W  c #7272A5A5DDDD",
"Q  c #46469898E2E2",
"!  c #4B4B9C9CE3E3",
"~  c #4D4DA7A7E666",
"^  c #4E4EABABE9E9",
"/  c #54AAA634E144",
"(  c #5B5BA5A5E2B7",
")  c #54FFA8FEE439",
"_  c #5C4EABABE30B",
"`  c #5555ABABEDED",
"'  c #5B5BB1B1E9E9",
"]  c #63E4A4A4E1A1",
"[  c #613CAED3E3BE",
"{  c #7272AC01E338",
"}  c #65C1B256E577",
"|  c #6ACDB5A1E620",
" . c #6F6FB926E779",
".. c #6363B4B4E8E8",
"X. c #6C6CB6B6EBEB",
"o. c #6CEDBDBDECEC",
"O. c #7777B6B6E7E7",
"+. c #7E60B21EE56E",
"@. c #71BEBABAE7CD",
"#. c #7F7FB8B8E7E7",
"$. c #754ABDBDE913",
"%. c #7878BC3CEB6B",
"&. c #73C9C1C1EE43",
"*. c #7A7AC22FEA70",
"=. c #8F8FA8A8D5D5",
"-. c #8686AAAADBDB",
";. c #9999ABABD3D3",
":. c #8E8EB1B1DEDE",
">. c #95EBB2B2DD87",
",. c #9E9EB1B1D9D9",
"<. c #9C1CB939DFDF",
"1. c #A3A3B4B4DADA",
"2. c #A1A1BABADFDF",
"3. c #AFAFBEBEDEDE",
"4. c #8388B436E574",
"5. c #8C6AB535E349",
"6. c #8630B9A4E7D2",
"7. c #8AB5BA24E7A7",
"8. c #8585B7B7E8E8",
"9. c #8606BC7CE928",
"0. c #8C70BD21E93B",
"q. c #93C6B671E18B",
"w. c #98EEB761E0E0",
"e. c #94CDBB49E602",
"r. c #9C02BA98E27B",
"t. c #9252BF1EE9A9",
"y. c #9898BFBFE8E8",
"u. c #A393BC7CE1A1",
"i. c #AA85BEE3E14E",
"p. c #BABAC1C1DEDE",
"a. c #81D7C71CEC00",
"s. c #8E8EC116EA6A",
"d. c #854ECA5CED5A",
"f. c #8BBECEE8EED4",
"g. c #9D9DC0C0E7E7",
"h. c #9456C300EB51",
"j. c #9B7CC5A6EBEB",
"k. c #9D1DC949ED42",
"l. c #8F21D13EEF81",
"z. c #9191D305EFBC",
"x. c #8989CECEF0F0",
"c. c #8F8FD1D1F0F0",
"v. c #9555D656F150",
"b. c #9696D8D8F1F1",
"n. c #9B5FDADAF2A6",
"m. c #A626C0C0E565",
"M. c #ADD8C16BE237",
"N. c #A363C504EA29",
"B. c #A454CB8BEDDD",
"V. c #AA54CD77EE26",
"C. c #B380C376E248",
"Z. c #BAEDC6C6E248",
"A. c #BC7CCA09E464",
"S. c #AD46D16AEFBC",
"D. c #B2B2D2D2EFEF",
"F. c #A1E1DF9FF433",
"G. c #B35DD4D4F0F0",
"H. c #B939D757F1F1",
"J. c #BBBBD8D8F1F1",
"K. c #A4FAE270F566",
"L. c #AA54E5BAF676",
"P. c #AE6EE969F7B7",
"I. c #AF2FEA6AF8F8",
"U. c #B106EA94F7F7",
"Y. c #B3B3ED86F95F",
"T. c #BBD5F373FAFA",
"R. c #C282CDCDE625",
"E. c #CECED2D2E6E6",
"W. c #CECED5D5E9E9",
"Q. c #C3C3DBDBF2F2",
"!. c #C16BF74CFBFB",
"~. c #C646FB7BFDBD",
"^. c #CA09FE3DFEFE",
"/. c #D252FFFFFFFF",
"(. c None",
/* pixels */
"(.(.(.(.(.(.(.(.(.(.(.(.(.(.(.(.(.(.(.(.(.(.(.(.(.(.(.(.(.(.(.(.(.(.(.(.(.(.(.(.(.(.(.(.(.(.(.(.",
"(.(.(.(.(.(.(.(.(.(.(.(.(.(.(.(.(.(.(.(.(.(.(.(.(.(.(.(.(.(.(.(.(.(.(.(.(.(.(.(.(.(.(.(.(.(.(.(.",
"(.(.(.(.(.(.(.(.(.(.(.(.(.(.(.(.(.(.(.(.(.(.(.(.(.(.(.(.(.(.(.(.(.(.(.(.(.(.(.(.(.(.(.(.(.(.(.(.",
"(.(.(.(.(.(.(.(.(.(.(.(.(.(.(.(.(.(.(.(.(.(.b x x (.(.(.(.(.(.(.(.(.(.(.(.(.(.(.(.(.(.(.(.(.(.(.",
"(.(.(.(.(.(.(.(.(.(.(.(.(.(.(.(.(.(.(.(.(.(.d ;.=.p (.(.(.(.(.(.(.(.(.(.(.(.(.(.(.(.(.(.(.(.(.(.",
"(.(.(.(.(.(.(.(.(.(.(.(.(.(.(.(.(.(.(.(.(.c >.W.W.I v (.(.(.(.(.(.(.(.(.(.(.(.(.(.(.(.(.(.(.(.(.",
"(.(.(.(.(.(.(.(.(.(.(.(.(.(.(.(.(.(.(.(.(.1 E.R.R.Z.p (.(.(.(.(.(.(.(.(.(.(.(.(.(.(.(.(.(.(.(.(.",
"(.(.(.(.(.(.(.(.(.(.(.(.(.(.(.(.(.(.(.(.x P R.A.A.R.F v (.(.(.(.(.(.(.(.(.(.(.(.(.(.(.(.(.(.(.(.",
"(.(.(.(.(.(.(.(.(.(.(.(.(.(.(.(.(.(.(.(.: p.A.Z.Z.Z.,.p (.(.(.(.(.(.(.(.(.(.(.(.(.(.(.(.(.(.(.(.",
"(.(.(.(.(.(.(.(.(.(.(.(.(.(.(.(.(.(.(.v F A.Z.C.M.p.Z.6 c (.(.(.(.(.(.(.(.(.(.(.(.(.(.(.(.(.(.(.",
"(.(.(.(.(.(.(.(.(.(.(.(.(.(.(.(.(.(.(.p 1.C.M.M.M.M.M.U z (.(.(.(.(.(.(.(.(.(.(.(.(.(.(.(.(.(.(.",
"(.(.(.(.(.(.(.(.(.(.(.(.(.(.(.(.(.(.v 9 Z.M.M.M.3.i.2.p.> (.(.(.(.(.(.(.(.(.(.(.(.(.(.(.(.(.(.(.",
"(.(.(.(.(.(.(.(.(.(.(.(.(.(.(.(.(.(.x -.M.M.i.i.2.u.u.i.F x (.(.(.(.(.(.(.(.(.(.(.(.(.(.(.(.(.(.",
"(.(.(.(.(.(.(.(.(.(.(.(.(.(.(.(.(.(.g C.i.u.r.u.u.<.u.2.>., (.(.(.(.(.(.(.(.(.(.(.(.(.(.(.(.(.(.",
"(.(.(.(.(.(.(.(.(.(.(.(.(.(.(.(.(.x W i.i.u.u.u.2.u.<.<.r.e p (.(.(.(.(.(.(.(.(.(.(.(.(.(.(.(.(.",
"(.(.(.(.(.(.(.(.(.(.(.(.(.(.(.c p 7 m.r.r.r.w.w.w.w.w.w.w.>.# p x (.(.(.(.(.(.(.(.(.(.(.(.(.(.(.",
"(.(.(.(.(.v v v z z , a j n m Q E m.r.r.r.w.e.w.q.q.q.q.q.5.:.J e n * > ; ; , z z , z (.(.(.(.(.",
"(.(.(.x N ` %.s.N.B.V.V.B.N.N.u.g.y.r.y.r.q.q.q.q.q.>.5.5.:.5.5.q.5.e.e.5.+.{ ] ( ! V g : (.(.(.",
"(.(.x X.Q.H.G.S.V.B.k.j.y.y.h.y.e.e.e.e.e.5.5.5.5.:.5.5.5.-.5.4.4.4.4.4.8.8.8.7.0.t.h.k.B ; (.(.",
"(.(.x h.H.G.S.V.V.B.B.j.j.y.y.e.t.e.7.5.5.5.5.5.5.4.4.-.4.4.4.-.4.+.+.4.8.4.8.6.0.t.t.h._ + (.(.",
"(.(.x N J.G.S.V.B.B.j.j.h.h.y.7.7.7.7.5.7.5.4.5.4.-.4.4.4.+.+.+.+.+.+.+.4.4.6.6.0.0.h.h.< (.(.(.",
"(.(.(.p A H.S.V.B.B.B.j.h.y.e.t.7.7.7.4.4.4.4.4.4.4.+.+.+.+.{ +.+.4.4.#.6.6.6.0.0.s.0.g @ (.(.(.",
"(.(.(.(.z M S.S.B.B.j.j.h.h.h.0.7.7.7.4.8.+.+.+.+.+.+.+.+.4.W E L ] { 4.6.6.6.0.s.9.> , (.(.(.(.",
"(.(.(.(.(.z l B.V.B.k.j.j.h.t.0.t.7.8.8.4.8.4.+.+.+.4.R 4     $ & & * 3 D T 6.0.#.> (.(.(.(.(.(.",
"(.(.(.(.(.(.p j k.B.k.k.k.h.h.s.0.7.6.6.6.4.4.4.4.R - . & & & - * 3 4 5 5 w r K > (.(.(.(.(.(.(.",
"(.(.(.(.(.(.(.s d j.B.k.k.h.h.s.0.0.0.6.6.6.6.+.w % * * * 3 3 4 4 5 5 w t t y @ (.(.(.(.(.(.(.(.",
"(.(.(.(.(.(.(.(.x a s.B.k.k.s.h.h.0.0.0.6.0.T 4 - 3 7 4 4 4 4 5 w w t t D t @ (.(.(.(.(.(.(.(.(.",
"(.(.(.(.(.(.(.(.(.(.p O.k.k.h.h.h.s.s.0.#.D 4 5 9 0 0 0 0 w w r t t D H t @ (.(.(.(.(.(.(.(.(.(.",
"(.(.(.(.(.(.(.(.(.(.(.u ( s.k.j.h.j.a.T t w t t t r t t t t t G G G H G + (.(.(.(.(.(.(.(.(.(.(.",
"(.(.(.(.(.(.(.(.(.(.(.z n / T [ T T G G G G D D D D D D G H H H H T T 1 (.(.(.(.(.(.(.(.(.(.(.(.",
"(.(.(.(.(.(.(.(.(.(.(.(.h } _ T T T T T T Y H Y H H H Y T T T T T _ [ + (.(.(.(.(.(.(.(.(.(.(.(.",
"(.(.(.(.(.(.(.(.(.(.(.(.k | } [ [ _ [ T _ T T T T T _ T / T _ _ _ [ | @ (.(.(.(.(.(.(.(.(.(.(.(.",
"(.(.(.(.(.(.(.(.(.(.(.(.m @.| | } } } [ _ [ _ _ _ _ [ _ [ [ [ } } | @.= (.(.(.(.(.(.(.(.(.(.(.(.",
"(.(.(.(.(.(.(.(.(.(.(.p ^ *.@.@.@. .| } | } } } | } } | | | |  .@.@.$.B (.(.(.(.(.(.(.(.(.(.(.(.",
"(.(.(.(.(.(.(.(.(.(.(.: $.a.*.*.%.$.$.@.@. . . . . .@.@.$.@.$.*.*.*.a._ ; (.(.(.(.(.(.(.(.(.(.(.",
"(.(.(.(.(.(.(.(.(.(.(.i z.f.d.a.a.*.*.*.*.*.*.$.$.*.$.*.*.*.*.*.*.d.d.d.X (.(.(.(.(.(.(.(.(.(.(.",
"(.(.(.(.(.(.(.(.(.(.(.S b.v.f.f.d.d.d.d.a.a.d.d.d.a.a.a.d.d.d.d.f.f.z.b.2 (.(.(.(.(.(.(.(.(.(.(.",
"(.(.(.(.(.(.(.(.(.(., &.n.b.v.v.z.v.z.f.f.l.l.' | z.z.f.f.f.f.v.v.v.b.n./ ; (.(.(.(.(.(.(.(.(.(.",
"(.(.(.(.(.(.(.(.(.(.; L.K.F.n.n.b.b.b.b.n.~ ; ; ; # ..n.v.v.v.v.b.b.F.K.x.o (.(.(.(.(.(.(.(.(.(.",
"(.(.(.(.(.(.(.(.(.(.n T.L.L.L.K.K.K.L.*.< ; (.(.(.(.O 8 v.K.F.F.K.K.L.L.Y.X (.(.(.(.(.(.(.(.(.(.",
"(.(.(.(.(.(.(.(.(.(.^ T.Y.Y.I.I.I.L.Z X (.(.(.(.(.(.(.(.X ( U.I.P.P.U.Y.!.6 (.(.(.(.(.(.(.(.(.(.",
"(.(.(.(.(.(.(.(.(., o.~.T.T.T.!.d.@ , (.(.(.(.(.(.(.(.(.(.; = b.T.Y.T.T.~.V (.(.(.(.(.(.(.(.(.(.",
"(.(.(.(.(.(.(.(.(., o./.^.^.Y.C o (.(.(.(.(.(.(.(.(.(.(.(.(.(.X ) !.^.~./.G (.(.(.(.(.(.(.(.(.(.",
"(.(.(.(.(.(.(.(.(.(.g ~.T.' + (.(.(.(.(.(.(.(.(.(.(.(.(.(.(.(.(.o X o.^.I.X (.(.(.(.(.(.(.(.(.(.",
"(.(.(.(.(.(.(.(.(.(.(.+ + ; (.(.(.(.(.(.(.(.(.(.(.(.(.(.(.(.(.(.(.(.X X X (.(.(.(.(.(.(.(.(.(.(.",
"(.(.(.(.(.(.(.(.(.(.(.(.(.(.(.(.(.(.(.(.(.(.(.(.(.(.(.(.(.(.(.(.(.(.(.(.(.(.(.(.(.(.(.(.(.(.(.(.",
"(.(.(.(.(.(.(.(.(.(.(.(.(.(.(.(.(.(.(.(.(.(.(.(.(.(.(.(.(.(.(.(.(.(.(.(.(.(.(.(.(.(.(.(.(.(.(.(.",
"(.(.(.(.(.(.(.(.(.(.(.(.(.(.(.(.(.(.(.(.(.(.(.(.(.(.(.(.(.(.(.(.(.(.(.(.(.(.(.(.(.(.(.(.(.(.(.(."
};
